<svg width="141" height="32" viewBox="0 0 141 32" fill="none" xmlns="http://www.w3.org/2000/svg">
<path d="M135.76 29.3612C135.76 28.6576 136.018 28.0482 136.533 27.533C137.048 27.0178 137.664 26.7603 138.38 26.7603C139.096 26.7603 139.712 27.0178 140.227 27.533C140.742 28.0482 141 28.6639 141 29.3801C141 30.1089 140.742 30.7309 140.227 31.246C139.725 31.7486 139.109 31.9999 138.38 31.9999C137.639 31.9999 137.017 31.7486 136.514 31.246C136.012 30.7434 135.76 30.1152 135.76 29.3612Z" fill="#CA10B8"/>
<path d="M113.916 13.1109H118.176V14.8072C119.658 13.3371 121.329 12.6021 123.189 12.6021C125.325 12.6021 126.99 13.2743 128.184 14.6188C129.214 15.7622 129.729 17.6281 129.729 20.2166V31.4687H125.47V21.2155C125.47 19.4061 125.218 18.1559 124.716 17.4648C124.226 16.7611 123.334 16.4093 122.039 16.4093C120.632 16.4093 119.633 16.8742 119.043 17.804C118.465 18.7213 118.176 20.3234 118.176 22.6102V31.4687H113.916V13.1109Z" fill="#101010"/>
<path d="M89.8283 22.1579C89.8283 19.5066 90.777 17.2512 92.6743 15.3915C94.5717 13.5319 96.8837 12.6021 99.6103 12.6021C102.35 12.6021 104.674 13.5382 106.584 15.4104C108.469 17.2826 109.411 19.582 109.411 22.3087C109.411 25.0604 108.462 27.3661 106.565 29.2258C104.655 31.0729 102.312 31.9964 99.5349 31.9964C96.7831 31.9964 94.4774 31.054 92.6178 29.1693C90.7581 27.3096 89.8283 24.9725 89.8283 22.1579ZM94.1633 22.2333C94.1633 24.0678 94.6533 25.5191 95.6334 26.5871C96.6386 27.6677 97.9643 28.208 99.6103 28.208C101.269 28.208 102.595 27.674 103.587 26.606C104.58 25.5379 105.076 24.1118 105.076 22.3275C105.076 20.5433 104.58 19.1171 103.587 18.0491C102.582 16.9685 101.256 16.4282 99.6103 16.4282C97.9894 16.4282 96.6763 16.9685 95.6711 18.0491C94.6659 19.1297 94.1633 20.5244 94.1633 22.2333Z" fill="#101010"/>
<path d="M85.3238 13.1124V31.4701H81.0831V13.1124H85.3238ZM80.4423 5.47902C80.4423 4.73768 80.7124 4.09685 81.2527 3.55655C81.793 3.01625 82.4401 2.74609 83.194 2.74609C83.9605 2.74609 84.6139 3.01625 85.1542 3.55655C85.6945 4.08429 85.9647 4.73139 85.9647 5.49787C85.9647 6.26435 85.6945 6.91774 85.1542 7.45804C84.6265 7.99834 83.9794 8.26849 83.2129 8.26849C82.4464 8.26849 81.793 7.99834 81.2527 7.45804C80.7124 6.91774 80.4423 6.25806 80.4423 5.47902Z" fill="#101010"/>
<path d="M74.9016 17.0729V31.4726H70.6609V17.0729H68.8515V13.1149H70.6609V6.38623H74.9016V13.1149H78.2V17.0729H74.9016Z" fill="#101010"/>
<path d="M66.4193 13.9025V19.538C65.4518 18.3569 64.5848 17.5465 63.8183 17.1067C63.0644 16.6543 62.1785 16.4282 61.1608 16.4282C59.565 16.4282 58.2394 16.9873 57.1839 18.1056C56.1284 19.2239 55.6007 20.6249 55.6007 22.3087C55.6007 24.0301 56.1096 25.4437 57.1273 26.5494C58.1577 27.6551 59.4707 28.208 61.0665 28.208C62.0843 28.208 62.9827 27.9881 63.7618 27.5483C64.5157 27.1211 65.4015 26.2918 66.4193 25.0604V30.6582C64.6979 31.5504 62.9764 31.9964 61.255 31.9964C58.4153 31.9964 56.0405 31.0792 54.1305 29.2446C52.2206 27.3976 51.2657 25.1044 51.2657 22.3652C51.2657 19.626 52.2332 17.314 54.1682 15.4292C56.1033 13.5444 58.4781 12.6021 61.2927 12.6021C63.1021 12.6021 64.811 13.0355 66.4193 13.9025Z" fill="#101010"/>
<path d="M35.3403 13.1147V23.6507C35.3403 26.6914 36.5403 28.2118 38.9402 28.2118C41.3402 28.2118 42.5402 26.6914 42.5402 23.6507V13.1147H46.7809V23.7449C46.7809 25.215 46.5987 26.4841 46.2343 27.5521C45.8825 28.5071 45.2731 29.3678 44.4061 30.1343C42.9737 31.3782 41.1517 32.0002 38.9402 32.0002C36.7413 32.0002 34.9256 31.3782 33.4932 30.1343C32.6137 29.3678 31.9917 28.5071 31.6273 27.5521C31.2755 26.6977 31.0995 25.4286 31.0995 23.7449V13.1147H35.3403Z" fill="#101010"/>
<path fill-rule="evenodd" clip-rule="evenodd" d="M20.413 24.4023H20.431L21.6183 27.1506L23.5 31.4415L23.4719 31.4415L23.4843 31.4702H28.2905L14.3997 0.541016L0 31.4702H4.73079L7.2959 25.8777L9.8243 20.2746H9.80085L11.6209 16.2933L14.2762 10.4089L14.2932 10.4476L14.3243 10.3796L18.6405 20.2746H18.6028L20.413 24.4023Z" fill="#101010"/>
</svg>
