<?xml version="1.0" encoding="UTF-8"?>
<svg id="Layer_2" data-name="Layer 2" xmlns="http://www.w3.org/2000/svg" viewBox="0 0 37.66 33.78">
  <defs>
    <style>
      .cls-1 {
        fill: #0074c7;
      }
    </style>
  </defs>
  <g id="BACKGROUND">
    <g>
      <path class="cls-1" d="M14.54,13.74L.75,26.79c-1,.95-1,2.54-.01,3.5h0c.96.92,2.49.9,3.42-.07l13.31-13.72-2.93-2.77Z"/>
      <rect class="cls-1" x="14.4" y="-1.52" width="3.41" height="13.81" rx="1.71" ry="1.71" transform="translate(8.52 -9.81) rotate(45)"/>
      <rect class="cls-1" x="24.14" y="8.22" width="3.41" height="13.81" rx="1.71" ry="1.71" transform="translate(18.27 -13.85) rotate(45)"/>
      <rect class="cls-1" x="17.37" y="4.72" width="7.08" height="10.67" rx=".93" ry=".93" transform="translate(13.24 -11.84) rotate(45)"/>
      <rect class="cls-1" x="14.7" y="31.8" width="22.96" height="1.98" rx=".99" ry=".99"/>
      <rect class="cls-1" x="15.76" y="28.73" width="20.84" height="1.98" rx=".41" ry=".41"/>
      <rect class="cls-1" x="16.75" y="27.74" width="18.9" height="1.98" rx=".45" ry=".45"/>
      <rect class="cls-1" x="18.66" y="25.76" width="14.98" height="1.98"/>
      <rect class="cls-1" x="19.65" y="24.77" width="13.1" height=".99"/>
    </g>
  </g>
</svg>