<?xml version="1.0" encoding="UTF-8"?><svg id="Layer_2" xmlns="http://www.w3.org/2000/svg" viewBox="0 0 28.9 29.6"><g id="Layer_1-2"><path d="m22.79,12.63c.2-.22.38-.46.6-.67,1.1-1.07,2.66-1.06,3.77,0,.31.3.62.61.92.92,1.1,1.13,1.11,2.7,0,3.83-1.7,1.72-3.42,3.43-5.14,5.14-.2.2-.29.39-.28.68.01,1.41,0,2.83,0,4.24,0,1.76-1.06,2.83-2.82,2.83-5.67,0-11.35,0-17.02,0C1.07,29.59,0,28.52,0,26.76,0,18.79,0,10.82,0,2.84,0,1.07,1.07,0,2.84,0,8.5,0,14.16,0,19.82,0c1.76,0,2.82,1.06,2.82,2.82,0,3.09,0,6.18,0,9.26,0,.16,0,.32,0,.48.05.02.09.04.14.07Zm-.19,2.61s-.01,0-.03.02c-2.2,2.2-4.41,4.4-6.6,6.61-.13.13-.25.32-.26.49-.03.66-.01,1.32-.01,2.02.55,0,1.06-.02,1.57,0,.47.03.82-.15,1.15-.48,2.05-2.07,4.11-4.12,6.17-6.18.09-.09.18-.19.26-.28-.75-.74-1.48-1.46-2.24-2.21Zm-11.27-4.78c2.2,0,4.41,0,6.61,0,.81,0,1.22-.29,1.23-.87,0-.58-.41-.88-1.21-.88-4.42,0-8.84,0-13.26,0-.2,0-.41,0-.6.06-.38.11-.58.39-.59.79-.01.39.21.74.58.84.19.05.4.06.6.06,2.22,0,4.43,0,6.65,0Zm.02,3.47c1.14,0,2.28,0,3.43,0,1.18,0,2.37,0,3.55,0,.49,0,.85-.4.85-.87,0-.45-.35-.81-.82-.86-.11,0-.22,0-.33,0-4.46,0-8.92,0-13.38,0-.12,0-.25,0-.37,0-.51.06-.85.5-.77,1.01.07.45.42.71.99.71,2.28,0,4.57,0,6.85,0Zm-1.76,1.76c-.57,0-1.14,0-1.71,0-1.17,0-2.34,0-3.51,0-.49,0-.82.32-.86.76-.04.44.2.82.62.93.14.04.3.04.44.04,3.35,0,6.69,0,10.04,0,.12,0,.25,0,.37-.02.44-.08.73-.47.7-.92-.03-.43-.34-.75-.79-.79-.14-.01-.27,0-.41,0-1.63,0-3.26,0-4.9,0Zm1.73-10.45c1.14,0,2.29,0,3.43,0,.57,0,.93-.36.93-.87,0-.51-.36-.85-.92-.88-.11,0-.22,0-.33,0-2.01,0-4.03,0-6.04,0-.26,0-.52,0-.77.05-.38.08-.62.41-.63.8,0,.41.23.75.62.85.17.04.35.05.52.05,1.06,0,2.12,0,3.18,0Zm-3.48,13.92c-1.12,0-2.23,0-3.35,0-.67,0-1.07.43-.98,1.02.07.46.43.73,1.02.73,2.2,0,4.41,0,6.61,0,.16,0,.33-.01.48-.07.37-.13.56-.41.56-.81,0-.4-.19-.68-.57-.81-.18-.06-.37-.07-.56-.07-1.07,0-2.15,0-3.22,0Zm18.36-2.97c.25-.26.5-.5.74-.76.33-.37.36-.8.05-1.14-.36-.4-.75-.79-1.15-1.15-.32-.28-.8-.28-1.09-.01-.28.26-.54.56-.79.82.75.75,1.48,1.48,2.25,2.25Z" fill="#FFFFFF" stroke-width="0"/></g></svg>