<svg width="10" height="10" viewBox="0 0 10 10" fill="none" xmlns="http://www.w3.org/2000/svg">
<path d="M9.81153 9.04656L5.77605 5L9.81153 0.953437C10.0333 0.731707 10.0333 0.388027 9.81153 0.166297C9.5898 -0.0554324 9.24612 -0.0554324 9.02439 0.166297L4.98891 4.21286L0.953437 0.177384C0.731707 -0.0443459 0.388027 -0.0443459 0.166297 0.177384C-0.0554324 0.399113 -0.0554324 0.742794 0.166297 0.964523L4.20177 5L0.166297 9.04656C-0.0554324 9.26829 -0.0554324 9.61197 0.166297 9.8337C0.388027 10.0554 0.731707 10.0554 0.953437 9.8337L4.98891 5.78714L9.03548 9.8337C9.25721 10.0554 9.60089 10.0554 9.82262 9.8337C10.0333 9.61197 10.0333 9.25721 9.81153 9.04656Z" fill="black"/>
</svg>
