<svg width="18" height="19" viewBox="0 0 18 19" fill="none" xmlns="http://www.w3.org/2000/svg">
<g clip-path="url(#clip0_3005_13735)">
<path d="M12.375 10.8496C12.375 11.0394 12.2238 11.1934 12.0375 11.1934H5.9625C5.7762 11.1934 5.625 11.0394 5.625 10.8496C5.625 10.6599 5.7762 10.5059 5.9625 10.5059H12.0375C12.2238 10.5059 12.375 10.6599 12.375 10.8496ZM10.0125 13.2559H5.9625C5.7762 13.2559 5.625 13.4099 5.625 13.5996C5.625 13.7894 5.7762 13.9434 5.9625 13.9434H10.0125C10.1988 13.9434 10.35 13.7894 10.35 13.5996C10.35 13.4099 10.1988 13.2559 10.0125 13.2559ZM15.75 8.43305V14.9746C15.75 16.6803 14.3872 18.0684 12.7125 18.0684H5.2875C3.61283 18.0684 2.25 16.6803 2.25 14.9746V4.66211C2.25 2.95642 3.61283 1.56836 5.2875 1.56836H9.01013C10.1813 1.56836 11.2835 2.03311 12.1131 2.87736L14.4648 5.2733C15.2937 6.11686 15.75 7.23886 15.75 8.43305ZM11.6352 3.36273C11.2633 2.98461 10.8252 2.70342 10.35 2.51642V6.03642C10.35 6.60498 10.8043 7.06767 11.3625 7.06767H14.8192C14.6349 6.58367 14.3588 6.1368 13.9876 5.75867L11.6352 3.36273ZM15.075 8.43305C15.075 8.20273 15.0493 7.97723 15.0102 7.75586H11.3625C10.4317 7.75586 9.675 6.98448 9.675 6.03711V2.32186C9.45697 2.28198 9.23558 2.25586 9.01013 2.25586H5.2875C3.98475 2.25586 2.925 3.33523 2.925 4.66211V14.9746C2.925 16.3015 3.98475 17.3809 5.2875 17.3809H12.7125C14.0153 17.3809 15.075 16.3015 15.075 14.9746V8.43305Z" fill="#101010" stroke="#101010" stroke-width="0.2"/>
</g>
<defs>
<clipPath id="clip0_3005_13735">
<rect width="18" height="18" fill="white" transform="translate(0 0.818359)"/>
</clipPath>
</defs>
</svg>
