<svg id="Group_4122" data-name="Group 4122" xmlns="http://www.w3.org/2000/svg" xmlns:xlink="http://www.w3.org/1999/xlink" width="73.728" height="59.183" viewBox="0 0 73.728 59.183">
  <defs>
    <clipPath id="clip-path">
      <rect id="Rectangle_2228" data-name="Rectangle 2228" width="73.727" height="59.183" fill="#0074c7" stroke="#0074c7" stroke-width="1"/>
    </clipPath>
  </defs>
  <g id="Group_4117" data-name="Group 4117" clip-path="url(#clip-path)">
    <path id="Path_6137" data-name="Path 6137" d="M73.728,53.226a6.811,6.811,0,0,1-5.415,5.6c-10.176-.134-20.958.722-31.1.166-2.319-.127-4.183-.671-5.678-2.53A7.619,7.619,0,0,1,30.1,53.154v-5.4H2.521c-.053,0-.9-.233-1.016-.28a2.581,2.581,0,0,1-1.5-2.1L.014,2.191A2.511,2.511,0,0,1,1.835.124c2.7.139,5.815-.3,8.471-.042,1.493.145,1.06,2.168-.152,2.168H2.377l-.216.216V45.234l.425.295H43.64l.425-.295V2.467l-.216-.216h-28.8a3.485,3.485,0,0,1-.86-.435A1.044,1.044,0,0,1,15.042.084L44.72.228a2.914,2.914,0,0,1,1.5,1.807V23.706H68.472c2.328,0,4.995,3.441,5.256,5.616ZM32.257,47.754V53.01c0,2.06,2.873,4,4.825,3.814,9.667-.467,19.927.627,29.524.007,2.727-.176,4.512-1.265,4.961-4.111V29.828A4.632,4.632,0,0,0,69.4,26.38a10.953,10.953,0,0,0-1.215-.513H46.225v2.16H67.608c.692,0,1.779,1.385,1.787,2.1-.282,4.444.419,9.44.02,13.818-.079.871-.664,1.564-1.589,1.142a2.333,2.333,0,0,1-.578-.717V30.4l-.216-.216H46.225v15.48a4.5,4.5,0,0,1-.793,1.367,3.994,3.994,0,0,1-1.727.721H36.577v4.392l.425.3,29.589.055a1.047,1.047,0,0,0,.517-.2c.367-.371-.03-2.77.2-3.539a1.071,1.071,0,0,1,2.065.11,19.32,19.32,0,0,1,0,3.679,2.612,2.612,0,0,1-2.525,2.082l-29.621.038a3.867,3.867,0,0,1-1.938-.654,4.028,4.028,0,0,1-.873-1.431V47.754Z" transform="translate(-0.001 0)" fill="#0074c7" stroke="#0074c7" stroke-width="1"/>
    <path id="Path_6138" data-name="Path 6138" d="M23.692,23.111l35.166.043a1.962,1.962,0,0,1,1.023,1.137l.142,35.726a2.016,2.016,0,0,1-1.273,1.895c-11.226.439-22.543.056-33.8.194a2.283,2.283,0,0,1-2.378-1.366l-.142-35.726a2.052,2.052,0,0,1,1.265-1.9m34.165,2.125H24.593V47.412l6.72-5.16a2.18,2.18,0,0,1,2.93.191c4.075,3.215,7.983,8.007,11.948,11.523a10.9,10.9,0,0,0,1.345,1.058l10.321-7.4Zm-8.64,34.7L32.664,44.012c-2.759,1.942-5.293,4.257-8.071,6.136V59.94Zm8.64-9.5L49.075,56.7l3.382,3.24h5.4Z" transform="translate(-18.113 -18.665)" fill="#0074c7" stroke="#0074c7" stroke-width="1"/>
    <path id="Path_6139" data-name="Path 6139" d="M250.87,187.614a1.747,1.747,0,0,1,1.006.079,50.415,50.415,0,0,1,5.932,3.427,1.832,1.832,0,0,1,.435,3c-1.938,1.018-3.852,2.459-5.8,3.417a2.822,2.822,0,0,1-1.034.417,1.881,1.881,0,0,1-1.945-1.662,48.6,48.6,0,0,1,.013-7.194,1.909,1.909,0,0,1,1.393-1.488m.757,2.414V195.5l4.609-2.806Z" transform="translate(-201.371 -151.491)" fill="#0074c7" stroke="#0074c7" stroke-width="1"/>
    <path id="Path_6140" data-name="Path 6140" d="M115.6,65.509a5.4,5.4,0,0,1,3.767,9.959,5.473,5.473,0,0,1-7.392-1.944c-1.815-3.067-.006-7.521,3.625-8.015m.139,2.155c-3.062.621-3.069,5.829.268,6.291,5.251.726,4.995-7.358-.268-6.291" transform="translate(-89.855 -52.853)" fill="#0074c7" stroke="#0074c7" stroke-width="1"/>
  </g>
</svg>
