<svg id="Group_4121" data-name="Group 4121" xmlns="http://www.w3.org/2000/svg" xmlns:xlink="http://www.w3.org/1999/xlink" width="65.442" height="65.556" viewBox="0 0 65.442 65.556">
  <defs>
    <clipPath id="clip-path">
      <rect id="Rectangle_2229" data-name="Rectangle 2229" width="65.443" height="65.556" fill="#0074c7" stroke="#0074c7" stroke-width="1"/>
    </clipPath>
  </defs>
  <g id="Group_4119" data-name="Group 4119" clip-path="url(#clip-path)">
    <path id="Path_6141" data-name="Path 6141" d="M0,7.787C.919,2.16,6.021-.771,11.51.176c1.088.187,2.677,1.552,2.677,2.691V15.328H42.368L56.745.948A3.3,3.3,0,0,1,60.669.605a39.039,39.039,0,0,1,4.185,4.123,3.321,3.321,0,0,1-.187,4.014l-6.515,6.585h4.026c.055,0,.857.155.963.187a3.4,3.4,0,0,1,2.3,2.939l-.007,44.1a3.552,3.552,0,0,1-2.683,3H7.924a10.408,10.408,0,0,0-1.505-.348A9.25,9.25,0,0,1,0,57.76Zm2.173,43.2a10.127,10.127,0,0,1,3.862-2.465c1.794-.554,3.593-.385,5.438-.569a1.355,1.355,0,0,0,.548-1.114l-.034-43.69c-.269-1.2-2.882-.933-3.855-.841-2.705.255-5.96,2.93-5.96,5.8ZM58.76,2.316a6.352,6.352,0,0,0-2.132,1.939l4.766,4.673c.6-.677,2.143-1.651,1.816-2.681-.656-.653-3.352-3.8-4-3.934a1.03,1.03,0,0,0-.449,0M54.919,5.883A8.023,8.023,0,0,0,53.433,7.45L58.2,12.123c.28-.329,1.573-1.312,1.474-1.691-.149-.567-3.87-3.623-4.39-4.443a.345.345,0,0,0-.364-.107M51.826,8.94,40.013,20.777l4.673,4.766L56.616,13.73ZM40,17.628H14.187V47.6c0,.049-.3.8-.36.918-1.388,2.773-4.933,1.307-7.307,2.151-6.783,2.411-5.2,12.237,2.229,12.721H62.056a1.208,1.208,0,0,0,1.111-.678l.012-44.423c-.164-.53-.479-.62-1-.666-2.027-.181-4.4.092-6.458.072L45.245,28.174c-1.3,1.043-3.9,1.256-5.556,1.346-5.359.291-10.984-.223-16.371-.012l-.441.2V41.528h26.2V35.841a1.947,1.947,0,0,1,.591-.686,1.086,1.086,0,0,1,1.584.939l0,16.618a2.317,2.317,0,0,1-2.36,1.985l-21.476,0a1.161,1.161,0,0,1-1.118-1.63c.071-.161.477-.543.606-.543h7.988V43.7H22.877V59.357c0,.587-1.262.952-1.785.507a3.83,3.83,0,0,1-.388-.635V29.514H17.062c-.423,0-.755-.782-.7-1.2.05-.388.59-.97.956-.97H36.042c.128-1.731.034-4.414.7-6.006.6-1.422,2.351-2.474,3.258-3.708m2.94,9.329L38.6,22.613c.077.812-.712,4.086-.227,4.571,1.434.409,3.081-.2,4.571-.227M49.078,43.7H37.064V52.52H49.078Z" transform="translate(0 0)" fill="#0074c7" stroke="#0074c7" stroke-width="1"/>
  </g>
</svg>
