<svg id="Group_4127" data-name="Group 4127" xmlns="http://www.w3.org/2000/svg" xmlns:xlink="http://www.w3.org/1999/xlink" width="64.7" height="64.665" viewBox="0 0 64.7 64.665">
  <defs>
    <clipPath id="clip-path">
      <rect id="Rectangle_2227" data-name="Rectangle 2227" width="64.7" height="64.665" fill="#fff" stroke="#fff" stroke-width="1"/>
    </clipPath>
  </defs>
  <g id="Group_4115" data-name="Group 4115" clip-path="url(#clip-path)">
    <path id="Path_6135" data-name="Path 6135" d="M0,63.4c.716-.812,1.378-5.3,3.03-4.1,1,.72-.5,2.532-.629,3.472H8.846l3.286-8.088H5.75c-.485.574-.748,2.492-1.457,2.707-.969.293-1.476-.408-1.2-1.325C5.334,51.316,6.894,45.875,9.2,41.2c.184-.372.468-1.053.969-1.053h9.288L17.134,36.6C11.472,27.66,9.421,16.393,16.5,7.557A20.384,20.384,0,0,1,49.364,9.172c5.842,8.866,3.369,18.97-1.8,27.428L45.24,40.149h9.288a2.009,2.009,0,0,1,.574.31L64.7,63.606c.041.6-.273.811-.754,1.059H0ZM31.44,1.9a18.632,18.632,0,0,0-14.432,8.188C8.181,23.4,19.706,39.337,29.442,48.428a32.011,32.011,0,0,0,2.466,2.209c.146.105.284.246.485.227a34.775,34.775,0,0,0,2.929-2.5c8.03-7.514,17.49-19.9,15.165-31.6A18.62,18.62,0,0,0,31.44,1.9M17.312,42.045H10.868L8.593,47.731h6.445Zm21.356,5.687h8.783a.988.988,0,0,1,.323,1.84l-11.039.082c-.944.568-3.335,3.345-4.229,3.491a1.347,1.347,0,0,1-.978-.358A57.283,57.283,0,0,1,24.2,45.837c-.539-.58-3-3.711-3.413-3.79-.368-.07-1.291-.1-1.506.257l-2.757,6.721-.4.481-8.2.14L6.445,52.786h7.266c.326,0,1.063.9.688,1.315l-3.531,8.668h3.538l6.957-16.61c.485-.392,1.008-.145,1.446.182L42.017,62.769h5.5l-9.477-8.4c-.562-.384-.066-1.579.442-1.579H58.256l-1.389-3.1-6.073-.119c-.987-.3-.507-1.838.322-1.838h4.991l-2.459-5.7-9.836.035Zm.379,15.038L22.305,48.488,16.428,62.769Zm23.252,0-3.349-8.088H41.323l9.162,8.088Z" transform="translate(0 0)" fill="#fff" stroke="#fff" stroke-width="1"/>
    <path id="Path_6136" data-name="Path 6136" d="M164.256,76.892a8.859,8.859,0,0,1-1.723,13.8,8.729,8.729,0,0,1-12.984-9.193c.162-.919.757-3.426,2.113-2.812,1.058.48-.016,2.06-.192,2.836-1.722,7.582,8.418,11.853,12.473,5.144a6.86,6.86,0,0,0-7.831-10.106c-.845.234-2.859,1.877-3.286.453-.27-.9.724-1.392,1.382-1.726a8.8,8.8,0,0,1,10.049,1.608" transform="translate(-125.758 -62.604)" fill="#fff" stroke="#fff" stroke-width="1"/>
  </g>
</svg>
