<svg id="Group_4124" data-name="Group 4124" xmlns="http://www.w3.org/2000/svg" xmlns:xlink="http://www.w3.org/1999/xlink" width="59.161" height="61.401" viewBox="0 0 59.161 61.401">
  <defs>
    <clipPath id="clip-path">
      <rect id="Rectangle_2226" data-name="Rectangle 2226" width="59.161" height="61.401" fill="#0074c7" stroke="#0074c7" stroke-width="1"/>
    </clipPath>
  </defs>
  <g id="Group_4113" data-name="Group 4113" clip-path="url(#clip-path)">
    <path id="Path_6129" data-name="Path 6129" d="M45.025,4.741h4.267c.051,0,.557.415.557.558V24.817h2.783c.456,0,1.59,1.106,1.535,1.684L54.2,36.874c.41.693,2.091,1.781,2.2,2.513.135.94-.924,2.271-.837,2.936a11.4,11.4,0,0,0,.713,1.644c.489.55,2.069.791,2.547,1.29.44.459.423,3.93.111,4.462s-2.074.873-2.594,1.366a8.41,8.41,0,0,0-.776,1.705c-.1.761,1.122,2.091.786,3.138a19.239,19.239,0,0,1-2.718,2.729c-.923.4-2.288-.934-3.319-.728a7.582,7.582,0,0,0-1.58.776c-.4.5-.83,2.32-1.385,2.578a18.184,18.184,0,0,1-4.147,0c-.588-.275-1.062-2.43-1.422-2.727a14.578,14.578,0,0,0-1.763-.662c-.693-.03-1.967.849-2.607.872-.518.019-.816-.538-1.34-.5L2.06,58.262C.674,58.095.125,57.168.008,55.857L0,20.907a2.577,2.577,0,0,1,1.155-2.313,4.581,4.581,0,0,1,1.015-.346H3.963L4.055.31,4.364,0,44.622,0a1.415,1.415,0,0,1,.4.34Zm-1.732-3.1H5.695V18.249H8.663V12.734a2.728,2.728,0,0,1,.429-.809l7.3-7.184h26.9Zm4.824,4.833H17.568v6.382a2.648,2.648,0,0,1-.556.682H10.518v4.709h7.235a2.631,2.631,0,0,1,1.776,1.071c.823,1.354,1.162,3.735,1.973,5.087.094.157.16.326.357.385l21.87.021a2.379,2.379,0,0,1,1.791,1.676v7.249c.756.085,1.615-.28,2.135.4.208.272.212.677.462.838ZM15.837,11.8V7.715L11.755,11.8ZM43.788,33.739v-7l-.186-.186H21.588a5.723,5.723,0,0,1-.92-.442c-1.024-.729-1.824-4.188-2.459-5.467-.13-.262-.2-.5-.51-.6l-15.81.1-.158.9.12,35.3a.835.835,0,0,0,.318.208H34.636c-1.346-1.093.506-2.723.323-3.844a7.375,7.375,0,0,0-.752-1.612c-.8-.761-2.547-.6-2.668-1.912A22.547,22.547,0,0,1,31.6,45.5c.223-.682,2.311-.947,2.774-1.681a8.907,8.907,0,0,0,.618-1.6c0-.825-1.041-1.988-.824-2.947a13.218,13.218,0,0,1,2.854-2.845c.848-.283,2.146.821,2.993.784a11.874,11.874,0,0,0,1.7-.631c.575-.369.811-3.116,2.073-2.849m6.06-7.187V36.9c.719.716,1.831-.033,2.6-.372v-9.79l-.186-.186ZM33.3,48.714c.754.458,2.013.636,2.478,1.42a21.111,21.111,0,0,1,1.072,2.751l-.83,2.453,1.6,1.521c.864-.208,1.834-.944,2.72-.76a14.784,14.784,0,0,1,2.722,1.239c.452.452.706,1.69,1.1,2.241a9.831,9.831,0,0,0,2.044.06c.516-.1.811-1.984,1.583-2.5a16.663,16.663,0,0,1,2.748-1.1c.621-.027,1.814.707,2.474.835a13.555,13.555,0,0,0,1.429-1.379c.3-.517-.617-1.871-.685-2.527a12.956,12.956,0,0,1,1.226-3.122c.484-.535,1.775-.722,2.358-1.231a8.678,8.678,0,0,0,.061-1.923c-.111-.6-2.129-.842-2.622-1.71a16.6,16.6,0,0,1-1.03-2.753c.015-.582.893-2.041.789-2.451l-1.6-1.522c-.725.2-1.9.924-2.62.789a17.28,17.28,0,0,1-2.755-1.209c-.45-.424-.909-2.138-1.171-2.3-.5-.044-2.075-.236-2.341.136-.3.417-.532,1.516-.873,1.975a10.591,10.591,0,0,1-3.162,1.429c-.681.017-1.757-.723-2.471-.832a13.509,13.509,0,0,0-1.429,1.379c-.335.576.831,2.034.7,2.8A19.718,19.718,0,0,1,35.628,45.2c-.444.562-1.707.81-2.333,1.194Z" fill="#0074c7" stroke="#0074c7" stroke-width="1"/>
    <path id="Path_6130" data-name="Path 6130" d="M35.438,263.6h20.6a1.351,1.351,0,0,1,.708,1.025l-.058,7.135a1.257,1.257,0,0,1-1.239.742l-19.982-.063A1.232,1.232,0,0,1,34.6,271.2a44.683,44.683,0,0,1,.014-6.566,1.3,1.3,0,0,1,.823-1.035m19.577,1.708H36.339v5.453H55.015Z" transform="translate(-28.789 -220.046)" fill="#0074c7" stroke="#0074c7" stroke-width="1"/>
    <path id="Path_6131" data-name="Path 6131" d="M141.461,96.961l20.259-.029a.871.871,0,0,1,0,1.74l-20.169,0a.866.866,0,0,1-.091-1.715" transform="translate(-117.497 -80.916)" fill="#0074c7" stroke="#0074c7" stroke-width="1"/>
    <path id="Path_6132" data-name="Path 6132" d="M141.333,120.206l20.385-.028a.871.871,0,0,1,0,1.74H141.676a.883.883,0,0,1-.343-1.712" transform="translate(-117.494 -100.321)" fill="#0074c7" stroke="#0074c7" stroke-width="1"/>
    <path id="Path_6133" data-name="Path 6133" d="M204.749,73.426a1.046,1.046,0,0,1-.145,1.339l-12.254.119c-1.219-.142-1.008-1.667.123-1.74,3.668.257,7.773-.332,11.388,0a1.759,1.759,0,0,1,.889.286" transform="translate(-159.88 -60.97)" fill="#0074c7" stroke="#0074c7" stroke-width="1"/>
    <path id="Path_6134" data-name="Path 6134" d="M242.8,250.1c7.724-.484,9.015,10.9,1.663,12.323-8.694,1.682-10.242-11.785-1.663-12.323m0,1.732c-6.265.61-4.723,10.36,1.515,8.83,5.268-1.292,3.875-9.355-1.515-8.83" transform="translate(-197.92 -208.76)" fill="#0074c7" stroke="#0074c7" stroke-width="1"/>
  </g>
</svg>
