<?xml version="1.0" encoding="UTF-8"?>
<svg id="Layer_2" data-name="Layer 2" xmlns="http://www.w3.org/2000/svg" viewBox="0 0 27.1 37.26">
  <defs>
    <style>
      .cls-1 {
        fill: #0074c7;
      }
    </style>
  </defs>
  <g id="BACKGROUND">
    <g>
      <rect class="cls-1" x="15.86" y="15.31" width="2" height="6.56"/>
      <path class="cls-1" d="M13.92,20.31c.23-.04.42.19.42.42l-.13,2.45c0,.32.6.91.95.92,1.94.21,4.29-.22,6.18.02,1.15.15.43,3.67.28,4.68-.31,2.07-.72,5.25-1.3,7.27-.24.83-1.14,1.03-2.04,1.2-2.52-.15-4.44.02-6.94-.19-1.78-.15-2.4-.8-3.68-1.89h-2.43v-9.57h2.39c.47-1.51,1.67-2.97,2.97-3.87.42-.29,1.47-.73,2.1-1,0,0,.91-.37,1.23-.43Z"/>
      <path class="cls-1" d="M.32,25.8h3.28c.18,0,.33.1.39.27l.03,8.38c0,.18-.11.33-.28.4l-3.33.03c-.18,0-.33-.12-.39-.28l-.03-8.38c0-.2.13-.36.32-.41Z"/>
      <path class="cls-1" d="M24.9,0H8.81c-1.21,0-2.2.98-2.2,2.2v12c0,1.21.98,2.2,2.2,2.2h16.09c1.21,0,2.2-.98,2.2-2.2V2.2c0-1.21-.98-2.2-2.2-2.2ZM15.39,11.79l-3.41-3.41.85-.85,2.56,2.56,5.49-5.49.85.85-6.34,6.34Z"/>
    </g>
  </g>
</svg>