<svg width="14" height="8" viewBox="0 0 14 8" fill="none" xmlns="http://www.w3.org/2000/svg">
<path d="M7 7.31835C6.61685 7.31908 6.23733 7.23988 5.88312 7.0853C5.52891 6.93072 5.20697 6.70377 4.9357 6.41745L0.171495 1.37606C0.0616886 1.25986 0 1.10227 0 0.937945C0 0.773621 0.0616886 0.616027 0.171495 0.499832C0.281301 0.383637 0.430231 0.318359 0.585521 0.318359C0.74081 0.318359 0.88974 0.383637 0.999546 0.499832L5.76375 5.54122C6.09177 5.88789 6.53641 6.0826 7 6.0826C7.46359 6.0826 7.90823 5.88789 8.23625 5.54122L13.0005 0.499832C13.1103 0.383637 13.2592 0.318359 13.4145 0.318359C13.5698 0.318359 13.7187 0.383637 13.8285 0.499832C13.9383 0.616027 14 0.773621 14 0.937945C14 1.10227 13.9383 1.25986 13.8285 1.37606L9.0643 6.41745C8.79303 6.70377 8.47109 6.93072 8.11688 7.0853C7.76267 7.23988 7.38315 7.31908 7 7.31835Z" fill="#101010"/>
</svg>
