<?xml version="1.0" encoding="UTF-8"?><svg id="Layer_2" xmlns="http://www.w3.org/2000/svg" viewBox="0 0 32.74 32.06"><g id="Layer_1-2"><path d="m8.29,27.75c-1.11-1.97-2.2-3.88-3.29-5.82.27-.16.53-.31.79-.46,1.16-.67,2.33-1.35,3.49-2.02.28-.16.57-.3.86-.43.8-.38,1.63-.43,2.47-.15.73.24,1.44.52,2.17.74,1.47.44,2.94.87,4.41,1.27.89.24,1.34,1.16.91,1.95-.27.5-.86.73-1.54.57-1.28-.32-2.56-.67-3.83-1-.06-.02-.13-.03-.19-.05-.39-.1-.68.01-.77.31-.1.34.07.6.5.72.66.19,1.32.39,1.99.55,1.06.26,2.11.53,3.18.72,1.16.2,2.25-.07,3.27-.66,2.03-1.18,4.05-2.36,6.09-3.52.73-.42,1.49-.76,2.35-.79,1.17-.04,1.87.87,1.51,1.96-.12.36-.36.59-.68.79-3.5,2.15-7,4.31-10.5,6.47-.16.1-.32.2-.48.3-1.04.67-2.15.82-3.35.49-2.65-.72-5.3-1.42-7.94-2.14-.49-.14-.95-.23-1.4.21Z" fill="#FFFFFF" stroke-width="0"/><path d="m19.18,4.41c.64.46,1.28.92,1.91,1.39,1.52,1.1,3.04,2.21,4.56,3.31.18.13.26.25.26.48-.01,2.24,0,4.47,0,6.71,0,.66-.27.94-.92.95-1.15,0-2.29,0-3.44,0-.09,0-.18,0-.31-.02,0-.13,0-.25,0-.36,0-1.41,0-2.83,0-4.24,0-.99-.58-1.57-1.58-1.58-.37,0-.73,0-1.1,0-.89.03-1.47.62-1.47,1.51,0,1.42,0,2.85,0,4.27,0,.12,0,.24,0,.34-.04.03-.06.05-.08.05-1.29,0-2.58.02-3.87,0-.45,0-.72-.35-.72-.84,0-1.31,0-2.63,0-3.94,0-.97,0-1.94,0-2.9,0-.12.06-.29.15-.36,2.15-1.58,4.31-3.14,6.47-4.71.04-.03.07-.04.13-.08Z" fill="#FFFFFF" stroke-width="0"/><path d="m19.17,3.08c-1.62,1.17-3.21,2.33-4.8,3.49-.81.59-1.61,1.19-2.43,1.76-.87.6-2.01.11-2.16-.94-.08-.55.15-.99.6-1.32,1.67-1.22,3.35-2.43,5.02-3.65.94-.69,1.89-1.37,2.83-2.06.64-.47,1.19-.48,1.84-.02.86.61,1.71,1.24,2.63,1.91,0-.4,0-.75,0-1.1,0-.42.08-.5.51-.51.27,0,.53,0,.8,0,.36,0,.45.1.45.47,0,.71.01,1.42,0,2.14,0,.21.07.34.24.47,1.08.77,2.14,1.55,3.22,2.33.48.35.73.81.62,1.41-.19,1.03-1.33,1.47-2.2.84-1.22-.87-2.43-1.76-3.64-2.65-1.17-.85-2.34-1.7-3.53-2.57Z" fill="#FFFFFF" stroke-width="0"/><path d="m5.87,32.06c-.49-.01-.74-.25-.94-.59-1.04-1.85-2.09-3.69-3.13-5.54-.54-.95-1.07-1.89-1.61-2.84-.36-.64-.24-1.08.4-1.44.47-.27.94-.54,1.42-.8.55-.3,1.02-.19,1.33.35,1.61,2.84,3.22,5.68,4.82,8.52.31.55.18,1.01-.37,1.33-.5.29-1,.58-1.51.85-.15.08-.33.13-.42.16Zm-3.12-9.19c.01-.33-.23-.61-.56-.62-.33-.02-.6.23-.62.56-.02.32.24.61.56.63.32.02.6-.24.62-.57Z" fill="#FFFFFF" stroke-width="0"/></g></svg>