<?xml version="1.0" encoding="UTF-8"?>
<svg id="Layer_2" data-name="Layer 2" xmlns="http://www.w3.org/2000/svg" viewBox="0 0 39.39 29.76">
  <defs>
    <style>
      .cls-1 {
        fill: #0074c7;
      }
    </style>
  </defs>
  <g id="BACKGROUND">
    <g>
      <path class="cls-1" d="M19.33,25.28c-.09,0-.18,0-.27,0C8.31,25.13.6,13.35.27,12.85l-.27-.43.29-.41C.64,11.52,8.92,0,19.82,0h.02c10.9.01,18.94,11.56,19.28,12.05l.27.39-.23.41c-.05.08-1.19,2.08-3.38,4.46l-1.11-1.01c1.5-1.64,2.5-3.1,2.93-3.78-1.49-2-8.73-11-17.76-11.01h-.01C10.81,1.5,3.41,10.42,1.83,12.46c1.48,2.1,8.41,11.2,17.25,11.32,1.18.02,2.36-.08,3.51-.3l.28,1.47c-1.16.22-2.35.33-3.54.33Z"/>
      <path class="cls-1" d="M19.7,18.64c-3.31,0-6-2.69-6-6s2.69-6,6-6,6,2.69,6,6-2.69,6-6,6ZM19.7,8.14c-2.48,0-4.5,2.02-4.5,4.5s2.02,4.5,4.5,4.5,4.5-2.02,4.5-4.5-2.02-4.5-4.5-4.5Z"/>
      <path class="cls-1" d="M30.44,29.76c-3.72,0-6.75-3.03-6.75-6.75s3.03-6.75,6.75-6.75,6.75,3.03,6.75,6.75-3.03,6.75-6.75,6.75ZM30.44,17.76c-2.9,0-5.25,2.36-5.25,5.25s2.35,5.25,5.25,5.25,5.25-2.36,5.25-5.25-2.35-5.25-5.25-5.25Z"/>
      <polygon class="cls-1" points="31.67 25.69 29.3 23.32 29.3 19.86 30.8 19.86 30.8 22.7 32.74 24.63 31.67 25.69"/>
    </g>
  </g>
</svg>