<?xml version="1.0" encoding="UTF-8"?>
<svg id="Layer_2" data-name="Layer 2" xmlns="http://www.w3.org/2000/svg" viewBox="0 0 33.04 32.81">
  <defs>
    <style>
      .cls-1 {
        fill: #0074c7;
      }
    </style>
  </defs>
  <g id="BACKGROUND">
    <g>
      <polygon class="cls-1" points="11.56 7.17 9.31 7.17 16.3 0 17.89 1.88 19.49 1.94 19.49 .95 20.65 .95 20.65 4.63 21.58 4.63 21.58 5.96 22.63 5.96 22.63 7.17 21.47 7.17 21.47 12.84 18.44 12.84 18.44 8.16 14.59 8.16 14.59 12.84 11.67 12.84 11.56 7.17"/>
      <polygon class="cls-1" points="5.46 12.84 4.46 12.84 4.46 9.91 11.63 9.91 11.63 10.91 5.46 10.91 5.46 12.84"/>
      <polygon class="cls-1" points="28.69 12.84 27.69 12.84 27.69 10.91 21.47 10.91 21.47 9.91 28.69 9.91 28.69 12.84"/>
      <path class="cls-1" d="M5.07,20.49c-1.99,0-3.6-1.62-3.6-3.6s1.62-3.6,3.6-3.6,3.6,1.62,3.6,3.6-1.62,3.6-3.6,3.6ZM5.07,14.29c-1.43,0-2.6,1.17-2.6,2.6s1.17,2.6,2.6,2.6,2.6-1.17,2.6-2.6-1.17-2.6-2.6-2.6Z"/>
      <path class="cls-1" d="M16.76,24.4c-2.37,0-4.3-1.93-4.3-4.3s1.93-4.3,4.3-4.3,4.3,1.93,4.3,4.3-1.93,4.3-4.3,4.3ZM16.76,16.8c-1.82,0-3.3,1.48-3.3,3.3s1.48,3.3,3.3,3.3,3.3-1.48,3.3-3.3-1.48-3.3-3.3-3.3Z"/>
      <path class="cls-1" d="M28.19,20.6c-1.99,0-3.6-1.62-3.6-3.6s1.62-3.6,3.6-3.6,3.6,1.62,3.6,3.6-1.62,3.6-3.6,3.6ZM28.19,14.4c-1.43,0-2.6,1.17-2.6,2.6s1.17,2.6,2.6,2.6,2.6-1.17,2.6-2.6-1.17-2.6-2.6-2.6Z"/>
      <path class="cls-1" d="M10.25,28.95H0v-3.97c0-2.83,2.3-5.12,5.12-5.12s5.12,2.3,5.12,5.12v3.97ZM1,27.95h8.25v-2.97c0-2.27-1.85-4.12-4.12-4.12s-4.12,1.85-4.12,4.12v2.97Z"/>
      <path class="cls-1" d="M23.35,32.81h-13.17v-2.98c0-3.37,2.74-6.11,6.11-6.11h.94c3.37,0,6.11,2.74,6.11,6.11v2.98ZM11.18,31.81h11.17v-1.98c0-2.82-2.29-5.11-5.11-5.11h-.94c-2.82,0-5.11,2.29-5.11,5.11v1.98Z"/>
      <path class="cls-1" d="M33.04,28.45h-9.86v-4c0-2.67,2.18-4.85,4.85-4.85h.17c2.67,0,4.85,2.17,4.85,4.85v4ZM24.17,27.45h7.86v-3c0-2.12-1.73-3.85-3.85-3.85h-.17c-2.12,0-3.85,1.73-3.85,3.85v3Z"/>
    </g>
  </g>
</svg>